<svg width="164" height="79" viewBox="0 0 164 79" fill="none" xmlns="http://www.w3.org/2000/svg">
<g clip-path="url(#clip0_1144_313)">
<path d="M7.45354 48.5208V26.6926H0V20.3799H22.0564V26.6926H14.6409V48.5208H7.45354Z" fill="white"/>
<path d="M35.52 48.5208L29.0172 39.432H28.9412V48.5208H22.058V20.3799H31.2609C34.1891 20.3799 36.4327 20.7602 37.9158 21.4066C40.9581 22.7757 43.0877 26.0841 43.0877 30.0771C43.0877 34.5264 40.4257 38.1771 36.0905 38.9377L43.7341 48.5208H35.52ZM31.6031 34.5264C34.4553 34.5264 36.2046 33.1954 36.2046 30.4954C36.2046 28.0616 34.3792 26.6926 31.6792 26.6926H28.9412V34.5264H31.6031V34.5264Z" fill="white"/>
<path d="M43.7319 48.5208V20.3799H50.9192V48.5208H43.7319Z" fill="white"/>
<path d="M132.937 34.2762C132.937 41.8438 127.385 49.2593 117.916 49.2593C109.587 49.2593 102.97 42.7565 102.97 34.5044C102.97 26.2523 109.855 20.0156 118.03 20.0156C124.38 20.0156 130.503 24.3128 132.1 29.979H124.038C122.707 27.6593 120.54 26.3283 117.84 26.3283C113.314 26.3283 110.158 29.979 110.158 34.5044C110.158 39.0297 113.124 42.9467 117.878 42.9467C121.224 42.9467 123.734 41.3114 124.609 38.4213H116.204V32.679H132.937V34.2762V34.2762Z" fill="white"/>
<path d="M132.682 48.5403V20.3994H139.869V42.2276H148.197V48.5403H132.682V48.5403Z" fill="white"/>
<path d="M148.197 48.5403V20.3994H163.826V26.7121H155.08V31.0854H163.56V37.398H155.08V42.2276H163.826V48.5403H148.197V48.5403Z" fill="white"/>
<path d="M65.1794 20L50.9188 48.5212H79.44L65.1794 20Z" fill="#C8102E"/>
<path d="M96.2871 48.736L86.1335 31.5283L86.3237 48.717H79.4406V20.5761L86.2457 20.5381L96.5913 38.3733L96.2871 20.5761H103.17V48.717L96.2871 48.736V48.736Z" fill="white"/>
<path d="M124.633 59.1959C123.416 56.1156 120.754 54.2902 117.826 54.2902C113.338 54.2902 110.296 58.1311 110.296 62.5043C110.296 66.8776 113.415 70.8705 117.864 70.8705C120.716 70.8705 123.15 69.2734 124.633 66.117H132.162C130.413 72.886 124.595 77.1832 117.94 77.1832C114.023 77.1832 110.334 75.8142 107.444 72.9621C104.402 69.9959 103.109 66.4212 103.109 62.1621C103.109 54.7085 109.536 47.9775 117.598 47.9775C121.477 47.9775 124.595 49.0423 127.409 51.4381C130.071 53.7198 131.668 56.3057 132.162 59.1959H124.633V59.1959Z" fill="white"/>
<path d="M66.1835 62.4208C66.1835 69.9884 60.6314 77.4039 51.1623 77.4039C42.8341 77.4039 36.2172 70.9011 36.2172 62.6489C36.2172 54.3968 43.1003 48.1602 51.2764 48.1602C57.6271 48.1602 63.7497 52.4573 65.3469 58.1236H57.2849C55.9539 55.8038 53.7863 54.4728 51.0863 54.4728C46.5609 54.4728 43.4046 58.1236 43.4046 62.6489C43.4046 67.1743 46.3708 71.0912 51.1243 71.0912C54.4708 71.0912 56.9806 69.456 57.8553 66.5658H49.4511V60.8236H66.1835V62.4208Z" fill="white"/>
<path d="M135.662 76.6809V66.4513L127.257 48.54H135.053L139.236 59.8344L143.457 48.54H151.177L142.849 66.4513V76.6809H135.662V76.6809Z" fill="white"/>
<path d="M96.2871 76.6794L86.1335 59.4716L86.3237 76.6604H79.4406V48.5195L86.2457 48.4814L96.5913 66.3167L96.2871 48.5195H103.17V76.6604L96.2871 76.6794V76.6794Z" fill="white"/>
<path d="M85.0766 76.6661V48.5271L65.6176 48.5176V54.8303L78.1935 54.8398V59.213L65.8838 59.2035V65.5162L78.1935 65.5257V70.3553L65.6176 70.3458V76.6585L85.0766 76.668V76.6661Z" fill="white"/>
<path d="M28.9396 48.5098L14.679 76.6507H43.2002L28.9396 48.5098Z" fill="#C8102E"/>
<path d="M86.3261 76.6604L96.2895 76.6795L86.136 59.4717L86.3261 76.6604Z" fill="#C8102E"/>
<path d="M86.2461 20.5381L96.2875 20.5761L96.5917 38.3733L86.2461 20.5381Z" fill="#C8102E"/>
<path d="M135.055 48.54H143.459L139.238 59.8344L135.055 48.54Z" fill="#C8102E"/>
<path d="M34.2505 9.22089C32.7029 9.22089 31.8495 7.94804 31.8495 5.9375C31.8495 3.9125 32.7029 2.65411 34.2505 2.65411C35.3354 2.65411 35.8271 3.11696 36.2032 4.10053H38.3873C38.1414 1.84411 36.3045 0.74482 34.2071 0.74482C31.43 0.74482 29.5352 2.58178 29.5352 5.9375C29.5352 9.29321 31.43 11.1302 34.2071 11.1302C36.3189 11.1302 38.1704 10.0309 38.4163 7.76H36.2177C35.8561 8.75804 35.3498 9.22089 34.2505 9.22089ZM42.08 3.40625C40.4889 3.40625 38.3482 4.46214 38.3482 7.26821C38.3482 10.0454 40.4889 11.1013 42.08 11.1013C43.6711 11.1013 45.8118 10.0454 45.8118 7.26821C45.8118 4.46214 43.6711 3.40625 42.08 3.40625ZM43.7868 7.26821C43.7868 8.74357 42.9768 9.39446 42.08 9.39446C41.1832 9.39446 40.3732 8.74357 40.3732 7.26821C40.3732 5.72054 41.1832 5.11304 42.08 5.11304C42.9768 5.11304 43.7868 5.72054 43.7868 7.26821ZM55.7099 3.40625C54.4804 3.40625 53.5402 4.28857 53.222 5.02625C52.846 3.85464 51.9492 3.40625 50.8644 3.40625C49.4758 3.40625 48.767 4.44768 48.5645 4.96839V3.47857H46.4527V11H48.5645V6.57393C48.6079 6.03875 49.0563 5.15643 50.0833 5.15643C50.7486 5.15643 51.3127 5.57589 51.3127 6.66071V11H53.4245V6.48714C53.4245 6.11107 53.9019 5.15643 54.9433 5.15643C55.6376 5.15643 56.1872 5.57589 56.1872 6.66071V11H58.299V6.61732C58.299 4.27411 57.1274 3.40625 55.7099 3.40625ZM63.4606 3.40625C62.4047 3.40625 61.6526 3.99928 61.4067 4.41875V3.47857H59.2949V13.7482H61.4067V10.0309C61.4067 10.1755 61.9708 11.1013 63.4172 11.1013C64.7768 11.1013 66.7729 10.0598 66.7729 7.23929C66.7729 4.47661 64.7768 3.40625 63.4606 3.40625ZM62.9833 9.39446C62.0576 9.39446 61.3199 8.70018 61.3199 7.23929C61.3199 5.79286 62.0576 5.11304 62.9833 5.11304C63.8945 5.11304 64.7335 5.735 64.7335 7.23929C64.7335 8.75804 63.8945 9.39446 62.9833 9.39446ZM73.9574 9.04732V6.55946C73.9574 4.34643 73.0461 3.40625 70.674 3.40625C68.6779 3.40625 67.6076 4.21625 67.4629 5.79286H69.459C69.5602 5.1275 70.0665 4.95393 70.6595 4.95393C71.1802 4.95393 71.8456 5.06964 71.8456 6.05321V6.06768C71.4261 6.31357 70.6451 6.38589 69.8206 6.545C68.4465 6.79089 67.0434 7.08018 67.0434 8.78696C67.0434 10.4504 68.2874 11.1013 69.6036 11.1013C71.3683 11.1013 71.9613 9.9875 72.077 9.79946V9.85732C72.077 10.6673 72.8147 11.0579 73.7404 11.0579C74.0442 11.0579 74.2467 11.0434 74.507 10.9277V9.72714C74.1599 9.69821 73.9574 9.49571 73.9574 9.04732ZM71.8456 8.62786C71.7009 8.88821 71.1802 9.59696 70.1822 9.59696C69.459 9.59696 69.1552 9.16304 69.1552 8.70018C69.1552 8.22286 69.4301 7.94804 70.1388 7.77446C70.8186 7.62982 71.3104 7.57196 71.8456 7.29714V8.62786ZM78.3679 9.45232C77.7604 9.45232 77.5579 9.14857 77.5579 8.68571V5.1275H79.0766V3.47857H77.5579V1.59821H75.4461V3.47857H74.2021V5.1275H75.4461V8.91714C75.4461 10.7252 76.473 11.0868 77.7748 11.0868C78.3389 11.0868 78.8307 11 79.1489 10.8698V9.35107C78.8307 9.42339 78.5848 9.45232 78.3679 9.45232ZM79.7833 0.74482V2.35036H81.8951V0.74482H79.7833ZM79.7833 3.47857V11H81.8951V3.47857H79.7833ZM87.0589 3.40625C86.003 3.40625 85.2508 3.99928 85.0049 4.43321V0.788213H82.8931V11H85.0049V9.85732C85.0049 10.0309 85.569 11.1013 87.0155 11.1013C88.4185 11.1013 90.3712 10.0598 90.3712 7.23929C90.3712 4.47661 88.433 3.40625 87.0589 3.40625ZM86.596 9.39446C85.6703 9.39446 84.9181 8.70018 84.9181 7.23929C84.9181 5.79286 85.6703 5.11304 86.596 5.11304C87.5651 5.11304 88.3317 5.74946 88.3317 7.23929C88.3317 8.74357 87.5651 9.39446 86.596 9.39446ZM91.0033 0.788213V11H93.1151V0.788213H91.0033ZM101.056 7.51411C101.056 4.47661 99.3347 3.40625 97.4689 3.40625C95.7331 3.40625 93.7515 4.47661 93.7515 7.28268C93.7515 10.0454 95.7476 11.1013 97.4544 11.1013C99.2769 11.1013 100.42 10.3636 100.853 8.84482H99.0165C98.7996 9.27875 98.3656 9.53911 97.5701 9.53911C96.5431 9.53911 95.9501 9.06179 95.791 7.90464H101.042C101.056 7.77446 101.056 7.65875 101.056 7.51411ZM95.8055 6.60286C95.9646 5.50357 96.5431 4.96839 97.4689 4.96839C98.4669 4.96839 99.0165 5.61929 99.0455 6.60286H95.8055ZM116.536 0.874999L114.8 7.64429L112.789 0.874999H110.663L108.653 7.64429L106.917 0.874999H104.603L107.51 11H109.535L111.719 4.25964L113.903 11H115.943L118.85 0.874999H116.536ZM119.418 0.74482V2.35036H121.53V0.74482H119.418ZM119.418 3.47857V11H121.53V3.47857H119.418ZM126.115 9.45232C125.508 9.45232 125.305 9.14857 125.305 8.68571V5.1275H126.824V3.47857H125.305V1.59821H123.193V3.47857H121.95V5.1275H123.193V8.91714C123.193 10.7252 124.22 11.0868 125.522 11.0868C126.086 11.0868 126.578 11 126.896 10.8698V9.35107C126.578 9.42339 126.332 9.45232 126.115 9.45232ZM132.058 3.40625C130.669 3.40625 129.859 4.44768 129.643 4.96839V0.788213H127.531V11H129.643V6.55946C129.715 6.08214 130.221 5.15643 131.277 5.15643C132.029 5.15643 132.622 5.54696 132.622 6.58839V11H134.734V6.47268C134.734 4.18732 133.606 3.40625 132.058 3.40625Z" fill="white"/>
</g>
<defs>
<clipPath id="clip0_1144_313">
<rect width="164" height="79" fill="white"/>
</clipPath>
</defs>
</svg>
